inDegrees=yes
name=IMU_IK_results.mot
DataType=double
version=3
OpenSimVersion=4.4-2022-08-12-dcf8e2cb1
endheader
time	TH_y	TH_x	TH_z	TH_x_trans	TH_y_trans	TH_z_trans	SC_y	SC_z	SC_x	AC_y	AC_z	AC_x	GH_y	GH_z	GH_x	EL_x	PS_y
34.83000000000164	-169.806057587658	-1.267206008408514	-4.55944061484269	0	0	0	-21.7838553708739	6.302535746439055	0	46.29498984657052	4.898789148368539	-1.180293057969496	-35.75554666088033	4.596419409600854	10.44422113738372	81.33846598098856	80.91804830159616
34.84000000000164	-169.8510822520501	-1.279464506015272	-4.542078606476576	0	0	0	-21.7838553708739	6.302535746439055	0	46.29498984657052	4.898789148368539	-1.180293057969496	-34.23602208398727	4.631203829338844	10.33408013976547	81.47087376407806	81.65340646863046
34.85000000000164	-169.8894370068609	-1.289312905058555	-4.524154906832182	0	0	0	-21.7838553708739	6.302535746439055	0	46.29498984657052	4.898789148368539	-1.180293057969496	-32.70556808149842	4.652467117663317	10.24106016372945	81.58164013827292	82.40645566194019
34.86000000000163	-169.9214167040057	-1.296269070028546	-4.505436343721619	0	0	0	-21.7838553708739	6.302535746439055	0	46.29498984657052	4.898789148368539	-1.180293057969496	-31.17223685800379	4.658751781226447	10.16659595363936	81.6714018363899	83.15773483903573
34.87000000000163	-169.9481957941903	-1.299733677590917	-4.484933991596963	0	0	0	-21.7838553708739	6.302535746439055	0	46.29498984657052	4.898789148368539	-1.180293057969496	-29.64242665336177	4.649734987886744	10.11066973701471	81.74260999054555	83.88752332555516
34.88000000000163	-169.9704927301738	-1.299508038652941	-4.462131701688111	0	0	0	-21.7838553708739	6.302535746439055	0	46.29498984657052	4.898789148368539	-1.180293057969496	-28.12046342658747	4.626823587454377	10.07383940234682	81.79989315147982	84.58084709809341
34.89000000000163	-169.9897289548553	-1.295434811490532	-4.436038315989438	0	0	0	-21.7838553708739	6.302535746439055	0	46.29498984657052	4.898789148368539	-1.180293057969496	-26.60796116013489	4.59332687751922	10.05597256749506	81.84809925546658	85.22464074159026
34.90000000000163	-170.0118922459175	-1.279519392843678	-4.390946064967816	0	0	0	-21.7838553708739	6.302535746439055	0	46.29498984657052	4.898789148368539	-1.180293057969496	-25.0989985876138	4.530354838275732	10.04421777154014	81.89813287430029	85.81166823499775
34.91000000000162	-170.0278047722158	-1.267265973034425	-4.356865106667927	0	0	0	-21.7838553708739	6.302535746439055	0	46.29498984657052	4.898789148368539	-1.180293057969496	-23.60668983331884	4.495597645249865	10.05858798855397	81.93783115717605	86.31403734961503
34.92000000000162	-170.036490803736	-1.263670936339875	-4.339694815863997	0	0	0	-21.7838553708739	6.302535746439055	0	46.29498984657052	4.898789148368539	-1.180293057969496	-22.13045165477292	4.504542675161942	10.10304859983492	81.97668982379449	86.72921206939957
34.93000000000162	-170.0559961379395	-1.246046356277631	-4.296606610595771	0	0	0	-21.7838553708739	6.302535746439055	0	46.29498984657052	4.898789148368539	-1.180293057969496	-20.6377793669627	4.50345191377838	10.14297723381615	82.02571650872643	87.06741616979666
34.94000000000162	-170.0756435233523	-1.225824674547309	-4.248502358273254	0	0	0	-21.7838553708739	6.302535746439055	0	46.29498984657052	4.898789148368539	-1.180293057969496	-19.13843948484884	4.530806978396454	10.18788549835918	82.08683898207063	87.32461743073748
34.95000000000162	-170.097317236008	-1.203577259341854	-4.196350814550772	0	0	0	-21.7838553708739	6.302535746439055	2.586273221513765e-34	46.29498984657052	4.898789148368539	-1.180293057969496	-17.62260279261736	4.596814982489463	10.23454421303049	82.16232127745189	87.50321240916951
34.96000000000161	-170.1275069373035	-1.169762308957686	-4.132223819800855	0	0	0	-21.7838553708739	6.302535746439055	6.896728590703373e-34	46.29498984657052	4.898789148368539	-1.180293057969496	-16.07164181334121	4.703624756416298	10.27468437037394	82.24309293317788	87.60433320012248
34.97000000000161	-170.1513105626076	-1.146596984784537	-4.076212666157909	0	0	0	-21.7838553708739	6.302535746439055	-3.448364295351686e-34	46.29498984657052	4.898789148368539	-1.180293057969496	-14.49786315688107	4.868287576196838	10.31344277694821	82.35889056665324	87.6630422663581
34.98000000000161	-170.1768355690434	-1.122813502525432	-4.017335082677047	0	0	0	-21.7838553708739	6.302535746439055	-2.586273221513765e-34	46.29498984657052	4.898789148368539	-1.180293057969496	-12.883152995637	5.085369183374013	10.34053820510121	82.49881520842921	87.68102983141227
34.99000000000161	-170.2019151234688	-1.099771875902225	-3.957046289065439	0	0	0	-21.7838553708739	6.302535746439055	0	46.29498984657052	4.898789148368539	-1.180293057969496	-11.22473102284751	5.354640508284051	10.35264614655304	82.66567277152063	87.67615943471741
35.00000000000161	-170.2296921908497	-1.077068548265411	-3.901048000639961	0	0	0	-21.7838553708739	6.302535746439055	0	46.29498984657052	4.898789148368539	-1.180293057969496	-9.512736676462724	5.674790991626405	10.3401595054062	82.86279193720645	87.67084668887064
35.0100000000016	-170.2520689098747	-1.054793812599522	-3.841193350119881	0	0	0	-21.7838553708739	6.302535746439055	0	46.29498984657052	4.898789148368539	-1.180293057969496	-7.7590054031019	6.036726783976963	10.31248803389665	83.08092442281854	87.68031168914347
35.0200000000016	-170.2701117315692	-1.034239954624599	-3.78268370289986	0	0	0	-21.7838553708739	6.302535746439055	0	46.29498984657052	4.898789148368539	-1.180293057969496	-5.964544526615988	6.433467085171971	10.26471434934547	83.32016439751469	87.72202691506978
35.0300000000016	-170.2822604047621	-1.015305953613912	-3.726217001778374	0	0	0	-21.7838553708739	6.302535746439055	0	46.29498984657052	4.898789148368539	-1.180293057969496	-4.137622278290046	6.854380735540866	10.19715712385615	83.57652977439044	87.81177034317716
35.0400000000016	-170.2968880667252	-0.9624354207085843	-3.683777350602599	0	0	0	-21.7838553708739	6.302535746439055	0	46.29498984657052	4.898789148368539	-1.180293057969496	-2.266802335842847	7.287937193603791	10.0577593073944	83.86396619855225	87.94881477412093
